<?xml version="1.0" encoding="utf-8"?>
<!-- Generator: Adobe Illustrator 27.9.0, SVG Export Plug-In . SVG Version: 6.00 Build 0)  -->
<svg version="1.1" id="Calque_1" xmlns="http://www.w3.org/2000/svg" xmlns:xlink="http://www.w3.org/1999/xlink" x="0px" y="0px"
	 viewBox="0 0 24 24" style="enable-background:new 0 0 24 24;" xml:space="preserve">
<style type="text/css">
	.st0{fill:#00AD9A;}
</style>
<path class="st0" d="M4,21c-0.5,0-1-0.2-1.4-0.6S2,19.5,2,19V8c0-0.6,0.2-1,0.6-1.4C3,6.2,3.5,6,4,6h4V4c0-0.5,0.2-1,0.6-1.4
	S9.4,2,10,2h4c0.6,0,1,0.2,1.4,0.6S16,3.4,16,4v2h4c0.6,0,1,0.2,1.4,0.6C21.8,7,22,7.4,22,8v11c0,0.5-0.2,1-0.6,1.4S20.6,21,20,21H4
	z M10,6h4V4h-4V6z M20,15h-5v2H9v-2H4v4h16V15z M11,15h2v-2h-2V15z M4,13h5v-2h6v2h5V8H4V13z"/>
</svg>
