<?xml version="1.0" encoding="utf-8"?>
<!-- Generator: Adobe Illustrator 27.9.0, SVG Export Plug-In . SVG Version: 6.00 Build 0)  -->
<svg version="1.1" id="Calque_1" xmlns="http://www.w3.org/2000/svg" xmlns:xlink="http://www.w3.org/1999/xlink" x="0px" y="0px"
	 viewBox="0 0 24 24" style="enable-background:new 0 0 24 24;" xml:space="preserve">
<style type="text/css">
	.st0{fill:#00AD9A;}
</style>
<path class="st0" d="M5,22c-0.5,0-1-0.2-1.4-0.6S3,20.5,3,20V6c0-0.5,0.2-1,0.6-1.4C4,4.2,4.5,4,5,4h1V2h2v2h8V2h2v2h1
	c0.6,0,1,0.2,1.4,0.6C20.8,5,21,5.4,21,6v14c0,0.5-0.2,1-0.6,1.4S19.6,22,19,22H5z M5,20h14V10H5V20z M5,8h14V6H5V8z M5,8V6V8z
	 M12,14c-0.3,0-0.5-0.1-0.7-0.3S11,13.3,11,13s0.1-0.5,0.3-0.7c0.2-0.2,0.4-0.3,0.7-0.3s0.5,0.1,0.7,0.3c0.2,0.2,0.3,0.4,0.3,0.7
	s-0.1,0.5-0.3,0.7S12.3,14,12,14z M8,14c-0.3,0-0.5-0.1-0.7-0.3C7.1,13.5,7,13.3,7,13s0.1-0.5,0.3-0.7C7.5,12.1,7.7,12,8,12
	c0.3,0,0.5,0.1,0.7,0.3C8.9,12.5,9,12.7,9,13s-0.1,0.5-0.3,0.7C8.5,13.9,8.3,14,8,14z M16,14c-0.3,0-0.5-0.1-0.7-0.3
	C15.1,13.5,15,13.3,15,13s0.1-0.5,0.3-0.7c0.2-0.2,0.4-0.3,0.7-0.3s0.5,0.1,0.7,0.3c0.2,0.2,0.3,0.4,0.3,0.7s-0.1,0.5-0.3,0.7
	C16.5,13.9,16.3,14,16,14z M12,18c-0.3,0-0.5-0.1-0.7-0.3C11.1,17.5,11,17.3,11,17s0.1-0.5,0.3-0.7c0.2-0.2,0.4-0.3,0.7-0.3
	s0.5,0.1,0.7,0.3c0.2,0.2,0.3,0.4,0.3,0.7s-0.1,0.5-0.3,0.7C12.5,17.9,12.3,18,12,18z M8,18c-0.3,0-0.5-0.1-0.7-0.3
	C7.1,17.5,7,17.3,7,17s0.1-0.5,0.3-0.7C7.5,16.1,7.7,16,8,16c0.3,0,0.5,0.1,0.7,0.3C8.9,16.5,9,16.7,9,17s-0.1,0.5-0.3,0.7
	C8.5,17.9,8.3,18,8,18z M16,18c-0.3,0-0.5-0.1-0.7-0.3C15.1,17.5,15,17.3,15,17s0.1-0.5,0.3-0.7c0.2-0.2,0.4-0.3,0.7-0.3
	s0.5,0.1,0.7,0.3c0.2,0.2,0.3,0.4,0.3,0.7s-0.1,0.5-0.3,0.7C16.5,17.9,16.3,18,16,18z"/>
</svg>
