<?xml version="1.0" encoding="utf-8"?>
<!-- Generator: Adobe Illustrator 27.9.0, SVG Export Plug-In . SVG Version: 6.00 Build 0)  -->
<svg version="1.1" id="Calque_1" xmlns="http://www.w3.org/2000/svg" xmlns:xlink="http://www.w3.org/1999/xlink" x="0px" y="0px"
	 viewBox="0 0 24 24" style="enable-background:new 0 0 24 24;" xml:space="preserve">
<style type="text/css">
	.st0{fill:#00AD9A;}
</style>
<path class="st0" d="M3,21V7h6V5l3-3l3,3v6h6v10H3z M5,19h2v-2H5V19z M5,15h2v-2H5V15z M5,11h2V9H5V11z M11,19h2v-2h-2V19z M11,15h2
	v-2h-2V15z M11,11h2V9h-2V11z M11,7h2V5h-2V7z M17,19h2v-2h-2V19z M17,15h2v-2h-2V15z"/>
</svg>
